<svg xmlns="http://www.w3.org/2000/svg" viewBox="0 0 512 512" role="img" aria-label="FIRE Planner icon">
  <rect width="512" height="512" rx="112" fill="#111827"/>
  <path d="M122 337c60-25 83-70 77-135 43 29 66 72 65 128 42-26 63-64 61-114 48 44 73 92 73 142 0 84-63 130-142 130-74 0-134-51-134-151Z" fill="#ff8a00"/>
  <path d="M170 334c32-15 50-43 52-84 31 30 45 64 39 103 27-13 43-35 49-66 25 32 37 61 37 88 0 49-41 78-91 78-48 0-86-33-86-119Z" fill="#fef3c7"/>
  <path d="M126 121h260" stroke="#f9fafb" stroke-width="32" stroke-linecap="round"/>
  <path d="M126 166h151" stroke="#94a3b8" stroke-width="24" stroke-linecap="round"/>
</svg>
